Patient4_TMGait_0pt4_01_right_37_EMG.mot
version=1
nRows=40
nColumns=33
inDegrees=no
endheader
time	1LAddLong	2LGlutMax	3LGlutMed	4LIliopsoas	5LSemiMemb	6LBicFemLong	7LRecFem	8LVastMed	9LVastLat	10LGasMed	11LTibAnt	12lTibPost	13LPeroneusLong	14LSol	15LExtDigLong	16LFlexDigLong	17RAddLong	18RGlutMax	19RGlutMed	20RIliopsoas	21RSemiMemb	22RBicFemLong	23RRecFem	24RVastMed	25RVastLat	26RGasMed	27RTibAnt	28RTibPost	29RPeroneusLong	30RSol	31RExtDigLong	32RFlexDigLong
48.24	0.022583	0.19363	0.069427	0.025024	0.097046	-0.068817	0.050354	0.006409	-0.059509	-0.008087	0.049438	-0.000458	0.052032	-0.012817	-0.15289	-0.045624	0.010681	-0.076752	0.79514	-0.045776	0.069885	-0.017548	-0.085297	-0.003662	0.042419	-0.009766	0.14954	-0.001831	-0.13107	0.078888	0.000153	-0.014038
48.241	0.021057	0.1741	0.13794	-0.006409	0.038452	-0.003815	0.072327	-0.001526	-0.049744	0.03006	0.067596	0.008545	0.67841	-0.10681	-0.13031	-0.010376	0.009003	-0.10544	0.57831	0.02655	0.065308	-0.030823	-0.25024	-0.032501	0.021973	-0.014038	0.01236	-0.000153	-0.10193	0.1648	-0.000916	-0.009003
48.242	0.013733	0.19684	0.1535	-0.006256	0.014343	0.016937	0.081329	-0.00351	0.001984	-0.024261	0.019379	0.019379	0.36621	0.027313	-0.003357	0.009003	-0.005035	-0.071564	0.35065	0.081482	0.06897	-0.008698	-0.25955	0.028229	0.020905	-0.005493	0.033569	-0.003815	-0.032196	0.045776	0.000458	-0.008392
48.243	0.015411	0.1561	0.026703	-0.016479	0.007324	-0.015259	0.05661	0.002289	0.072937	-0.013123	0.011292	0.000763	-0.54459	0.081177	0.009308	0.003662	-0.007019	-0.092163	0.20615	0.098877	0.068665	-0.006256	-0.15793	0.10132	0.042572	-0.003357	-0.070496	-0.002899	-0.013428	0.010376	0.006256	-0.001678
48.244	0.012665	0.19363	0.04303	-0.000458	0.013275	-0.047607	0.031586	0.00412	0.098572	0.014343	-0.00351	-0.007629	-0.18753	-0.02533	0.027618	-0.003662	-0.001526	-0.085449	0.072784	0.112	0.066223	0.00412	0.035248	0.1062	0.052643	0.000458	-0.36179	-0.00946	0.036926	0.04303	0.003967	-0.004272
48.245	0.009308	0.22659	0.010071	0.013885	-0.007324	-0.055084	0.016327	0.005951	-0.061798	-0.023956	-0.03952	0.003357	0.27786	0.023956	0.081635	0.001984	0.026245	-0.041809	0.21149	0.083923	0.06424	-0.003815	0.12421	0.14816	0.031738	0.003204	-0.39276	-0.004272	0.084991	0.010681	-0.000153	-0.000305
48.246	0.002594	0.19852	-0.043335	0.028076	-0.046387	0.055237	0.022583	0.00885	-0.002747	-0.025482	-0.018921	0	0.12253	0.019226	0.091248	0.007629	0.02655	-0.1178	0.34592	0.04425	0.070953	0.017853	0.19073	0.11337	0.048981	-0.002747	-0.15259	-0.013275	0.034943	-0.014343	-0.007172	0.00412
48.247	-0.003204	0.1973	-0.11841	0.010223	-0.002747	0.028229	0.037689	0.004578	0.038147	-0.042419	-0.050812	0.006409	0.14313	-0.032806	0.085754	0.014801	0.020294	-0.12711	0.50171	-0.012054	0.058899	-0.006409	0.2887	0.10376	0.0177	-0.007324	0.20264	-0.004425	-0.10376	-0.014496	-0.002136	-0.001831
48.248	-0.003967	0.19821	-0.048065	-0.004272	0.053253	0.007782	0.095978	0.012817	0.03067	-0.042572	-0.030975	0.001831	-0.54962	-0.073547	0.08728	0.008545	0.017395	-0.12085	0.5394	-0.029602	0.05722	0.01236	0.3009	-0.001984	0.024109	-0.013733	0.45181	-0.007477	-0.18112	-0.031128	-0.001526	-0.007629
48.249	0.006866	0.18753	-0.04303	-0.030823	0.029297	-0.019989	0.004425	0.004272	0.045776	-0.057983	-0.032959	0.00946	-0.18662	-0.091705	0.018005	0.015564	0.001984	-0.10025	0.50552	-0.035248	0.037231	0.021515	0.32105	-0.001221	0.014954	-0.008392	0.51544	-0.003662	-0.1709	-0.0354	-0.003662	-0.001678
48.25	-0.001678	0.19333	0.023804	0.003815	0.014496	-0.017395	-0.032959	0.00412	0.007782	-0.007935	-0.013428	0.001984	0.095978	-0.043793	-0.033569	-0.001831	-0.01358	-0.092316	0.31952	-0.11368	0.034943	0.027313	0.30411	0.050354	0.044403	-0.00946	0.61157	-0.002136	-0.16434	-0.061798	-0.000458	-0.000916
48.251	0.00351	0.17227	0.087585	0.026093	0.007324	-0.009155	-0.013885	0.011139	-0.006409	0.00946	0.045471	0.007172	-0.074768	-0.033112	-0.004883	0.005188	0.002747	-0.076904	0.31479	-0.15152	0.035706	0.022278	0.28793	0.12482	0.049896	-0.005798	0.55359	-0.000916	-0.11505	-0.085449	0.001068	-0.002441
48.252	-0.003204	0.18036	0.15015	0.018158	0.014496	-0.027161	-0.044098	0.012665	0.022125	-0.013885	0.070496	0.005493	-0.025787	-0.048523	0.005493	0.005188	0.042419	-0.078583	0.27649	-0.1503	0.037842	0.025024	0.23254	0.028839	0.036316	-0.000305	0.57831	-0.003662	-0.090637	-0.079803	0.003052	0.000763
48.253	-0.002136	0.15595	0.048676	-0.010376	0.008087	-0.003967	0.013428	0.004883	-0.007782	0.00473	0.084534	0.009766	-0.17777	-0.055084	-0.10651	0.003662	0.077209	-0.049896	0.1294	-0.1004	0.04715	0.031586	0.159	-0.011292	0.034485	-0.002747	0.25436	-0.003052	-0.08255	-0.093384	0.00061	0
48.254	-0.004272	0.16235	-0.00824	-0.017853	0.011597	0.079498	-0.035248	0.005646	0.000916	0.058899	0.095978	0.00351	-0.29907	-0.064392	-0.034637	-0.001984	0.002747	-0.048065	-0.014191	-0.028229	0.021362	0.026398	0.082703	-0.029144	0.04425	-0.009003	-0.17319	-0.001526	-0.055542	-0.080261	0.001831	-0.002441
48.255	-0.016022	0.1857	-0.05188	-0.023193	0.018768	0.030823	-0.036774	-0.011139	0.046692	0.075378	-0.016937	0.00824	0.53925	0.025787	-0.002747	0.012207	-0.046539	-0.083008	-0.048218	0.050812	0.013275	0.034637	0.029297	-0.019989	0.055542	-0.010834	-0.086517	0.002594	-0.097198	-0.018616	0.000763	0
48.256	-0.003204	0.15396	-0.074615	0.022583	0.036316	-0.012512	-0.000153	-0.009003	0.082245	0.08194	-0.16205	0.0177	0.94482	0.11063	-0.013275	0.013885	-0.058594	-0.12375	0.083923	0.1741	0.015564	0.035706	0.020905	-0.048981	0.02655	-0.011444	-0.11383	-0.000153	-0.13199	-0.010071	0.000153	0.002899
48.257	-0.00946	0.13016	-0.12314	0.00885	0.03891	-0.10925	0.003052	0.010529	0.039215	0.18417	-0.11902	0.013428	0.37247	0.077667	0.020752	-0.001373	-0.030212	-0.12451	0.55878	0.21133	0.010071	0.041809	-0.001984	-0.11337	0.046234	-0.002747	-0.56198	-0.000153	-0.15686	0.027313	-0.00061	0.01709
48.258	0.005798	0.15747	0.10162	-0.004883	0.037842	-0.13763	0.032043	0.006104	0.020599	0.13245	-0.042572	0.012665	0.065918	0.10178	-0.019836	0.00473	0.003052	-0.13046	0.30899	0.20676	0.007477	0.058441	0.018768	-0.11032	0.024414	-0.004272	-0.9201	-0.002289	-0.094757	0.025787	0.001526	0.005951
48.259	0.018616	0.15518	-0.037231	0.021362	0.034637	-0.12436	0.023499	-0.000458	0.027924	-0.14252	0.00351	0.010223	-0.22232	0.033264	0.016785	-0.000763	0.024719	-0.15182	-0.041504	0.159	0.016785	0.04837	0.038605	-0.067139	0.023956	-0.005493	-0.77682	0.002441	-0.10605	0.065155	0.007324	0.004578
48.26	0.030212	0.15671	-0.082245	-0.007172	0.045471	-0.070953	0.033112	-0.000916	0.031891	-0.43304	0.022736	0.00351	-0.47318	0.079498	0.13382	0.018463	0.028229	-0.10223	-0.012054	0.097961	0.020752	0.066223	0.055695	-0.053101	0.017395	-0.010986	0.006866	-0.002594	-0.092316	0.068359	0	-0.001373
48.261	0.02121	0.20828	0.015106	0.019531	0.009613	0.04364	0.067139	0.000153	0.018921	-0.43396	0.025177	0.013733	-0.6488	0.20584	0.058746	0.011444	0.00946	-0.1506	0.056	-0.059204	0.042572	0.087585	0.002747	-0.023651	0.028381	-0.004578	0.81787	-0.00061	0.061951	-0.006256	0	0.003204
48.262	0.005188	0.20721	-0.003204	0.014954	-0.046997	0.13092	0.062561	0.007324	-0.006866	-0.16403	-0.024872	0.006104	-0.44647	-0.036621	-0.25497	-0.003662	0.031433	-0.10757	0.30548	-0.11337	0.046082	0.071259	0.009003	-0.003204	0.039825	-0.003052	0.9285	-0.005493	0.19379	-0.090637	0	0.000305
48.263	-0.005951	0.21484	-0.019684	0.010986	-0.081635	0.14984	0.075073	0.008545	-0.022125	0.007019	0.046692	0.005646	-0.066833	-0.14938	-0.26672	-0.002899	0.022583	-0.10147	0.076599	-0.050354	0.049133	0.069275	0.004272	-0.016937	0.038605	-0.000763	0.43518	-0.001678	0.25482	-0.061798	0.003052	-0.002289
48.264	-0.016785	0.1918	-0.023193	0.011444	-0.11841	0.11185	0.084839	0.011597	-0.011139	0.068665	0.0354	-0.002594	-0.22217	0.004578	0.016327	-0.008698	0.005493	-0.11932	-0.03006	0.042267	0.031738	0.030212	0.018463	-0.016785	0.034637	-0.003815	-0.058441	-0.003052	-0.17166	-0.023193	0.002899	0.001984
48.265	-0.019226	0.23544	-0.034943	-0.014343	-0.13519	0.060272	0.093536	0.00412	-0.002594	0.063019	0.0177	0.000305	0.10681	0.043488	0.12161	0.000763	-0.021057	-0.076141	-0.034943	0.21271	0.018005	0.037079	0.080414	0.009003	0.018463	-0.007324	-0.33325	-0.002136	-0.27298	0.003967	0.002747	-0.001984
48.266	-0.000916	0.24277	-0.076904	-0.023956	-0.011292	-0.016937	0.06424	-0.001221	0.032501	-0.099487	0.003662	-0.006256	0.22675	0.034637	0.068359	-0.001984	-0.029907	-0.081635	0.016327	0.18188	0.016174	0.013733	0.085449	0.000763	0.001984	0.003815	-0.53604	-0.001068	0.15778	-0.068359	0.004425	-0.012817
48.267	0.012054	0.25574	-0.13184	-0.006561	0.042572	-0.03067	0.081177	-0.007629	0.041809	-0.3093	-0.026398	-0.00061	0.19806	0.03479	0.030212	0.016327	-0.014954	-0.054932	0.04776	0.064087	0.006104	0.011597	0.13138	0.007019	-0.00473	0.000305	0.3154	-0.002747	0.26199	-0.18265	0	-0.010529
48.268	0.026093	0.2385	-0.19653	0.021057	0.15381	-0.018463	0.10696	-0.006256	0.032043	0.1709	-0.00946	0.001526	0.013428	-0.11276	0.085602	0.018158	0.040588	-0.063019	0.11292	0.015717	0.001221	0.000305	0.11047	-0.022278	0.005341	-0.00824	0.36346	-0.001984	-0.24094	-0.13351	0.000458	-0.012817
48.269	0.02182	0.25192	-0.1799	0.006256	0.096283	0.030518	0.11169	-0.002899	0.019073	0.43961	0.012512	0.003967	0.049744	-0.15915	0.073242	-0.010223	0.10452	-0.044403	0.16312	-0.025787	-0.007629	0.014496	0.11612	-0.019836	-0.000153	-0.014191	0.092468	-0.002136	-0.45075	0.019836	0.002136	-0.019836
48.27	0.021973	0.21835	0.029144	0.006866	0.045166	0.040741	0.103	-0.004425	0.023041	0.27618	0.015106	-0.013428	0.13367	-0.23025	-0.039673	-0.012512	0.11902	-0.091705	-0.057678	-0.037689	-0.012512	0.028076	0.12756	-0.082855	-0.014648	-0.009003	-0.25726	-0.009003	0.012054	0.066223	0.000153	-0.011139
48.271	0.018616	0.25818	-0.029144	-0.003357	0.046234	0.042267	0.10208	0.000458	0.002441	0.46845	0.016479	0.030823	-0.066071	-0.14313	-0.090027	-0.024261	0.065918	-0.002747	0.05127	-0.11597	-0.025482	0.021515	0.10086	-0.1178	-0.015717	-0.00946	-0.35904	-0.012512	0.02182	0.002747	-0.00061	-0.003204
48.272	0.012665	0.25207	0.020752	0.011597	0.056763	0.014648	0.08194	0.00351	-0.015564	0.81482	-0.012817	0.009155	-0.06485	-0.30304	-0.073853	0.009613	0.002136	0.024261	0.075836	-0.1181	-0.032349	0.027466	0.049896	-0.14145	-0.021973	-0.005798	0.069885	-0.00412	-0.21255	-0.029297	0.001984	-0.004578
48.273	0.007935	0.17944	0.000153	0.007172	0.049896	0.029144	0.041656	0.003357	-0.016479	0.055542	-0.020447	0.01709	0.11581	-0.66513	-0.033112	0.004578	-0.05661	0.032654	-0.10391	-0.10422	-0.038452	0.039215	0.065002	-0.12146	-0.012207	-0.009766	-0.072327	-0.006561	-0.23117	0.12833	0.000153	-0.002899
48.274	0.004425	0.12497	0.21179	-0.007172	0.000763	0.022583	0.10864	0.002899	-0.056152	-0.72433	0.009918	0.00885	0.25345	-0.56976	0.010986	-0.000916	-0.090485	-0.003967	-0.16464	-0.24765	-0.032501	0.021667	0.005188	-0.13657	-0.020752	-0.018005	-0.26627	-0.00946	-0.16617	0.21225	0.001984	-0.010071
48.275	-0.00946	0.09552	0.22492	-0.001831	-0.06134	0.011292	0.15167	0.003052	-0.048065	-0.2095	-0.002899	0.007172	0.081482	-0.40604	0.005646	-0.003052	-0.089722	-0.029144	-0.26566	-0.22751	-0.019531	0.029907	-0.065308	-0.16556	-0.007019	-0.02121	-0.40558	-0.005646	-0.054932	0.18127	-0.00351	-0.006561
48.276	-0.005035	0.094757	0.18967	0.006256	-0.057678	-0.021667	0.069427	0.002899	0.002899	-0.011902	0.006409	0.007782	-0.23346	-0.17456	0.063019	-0.010376	-0.062866	-0.020599	-0.26947	0.043488	-0.012817	0.041656	-0.032043	-0.098267	0.011749	-0.01709	-0.092163	-0.002441	0.20432	0.103	0.00061	-0.013733
48.277	0.008698	0.055237	0.079803	0.00061	0.011749	-0.046692	0.1207	0.011902	0.016174	-0.1004	0.021973	0.014191	-0.32944	-0.003815	0.041351	-0.006256	-0.041809	-0.040283	-0.25009	0.091705	-0.005188	0.017395	-0.001221	-0.10666	0.006866	-0.018616	0.13779	-0.012054	0.23086	0.068359	-0.001221	-0.007324
48.278	0.003357	0.029449	-0.030975	0.03418	0.012817	-0.014801	0.11993	0.021515	0.020447	-0.13916	0.012207	0.009918	-0.40253	0.17807	0.002747	0.002289	-0.03006	-0.024719	-0.24216	0.14191	-0.002899	0.018463	0.045929	-0.074463	0.005493	-0.018768	0.11627	-0.003815	0.084229	0.032349	-0.001831	-0.012817
48.279	0.005798	0.016632	-0.019989	0.010223	0.029297	-0.013275	0.1445	0.02182	-0.011139	-0.04364	-0.008087	0.011444	0.24307	0.39154	-0.002899	0.00061	-0.017395	-0.036621	-0.16495	0.15625	-0.001678	0.023346	0.10971	-0.061188	0.016174	-0.026398	0.18845	-0.00946	-0.028992	0.014038	0.00351	-0.021515
